<?xml version="1.0" encoding="UTF-8" standalone="no"?>
<svg
   xmlns:dc="http://purl.org/dc/elements/1.1/"
   xmlns:cc="http://creativecommons.org/ns#"
   xmlns:rdf="http://www.w3.org/1999/02/22-rdf-syntax-ns#"
   xmlns:svg="http://www.w3.org/2000/svg"
   xmlns="http://www.w3.org/2000/svg"
   viewBox="0 0 666.66669 400"
   height="400"
   width="666.66669"
   xml:space="preserve"
   id="svg2"
   version="1.1"><metadata
     id="metadata8"><rdf:RDF><cc:Work
         rdf:about=""><dc:format>image/svg+xml</dc:format><dc:type
           rdf:resource="http://purl.org/dc/dcmitype/StillImage" /></cc:Work></rdf:RDF></metadata><defs
     id="defs6"><clipPath
       id="clipPath18"
       clipPathUnits="userSpaceOnUse"><path
         id="path16"
         d="M 0,300 H 500 V 0 H 0 Z" /></clipPath></defs><g
     transform="matrix(1.3333333,0,0,-1.3333333,0,400)"
     id="g10"><g
       id="g12"><g
         clip-path="url(#clipPath18)"
         id="g14"><g
           transform="translate(250.3496,122.1504)"
           id="g20"><path
             id="path22"
             style="fill:none;stroke:#333333;stroke-width:4;stroke-linecap:square;stroke-linejoin:miter;stroke-miterlimit:3;stroke-dasharray:none;stroke-opacity:1"
             d="M 0,0 2.351,-44.4 M 61.75,20.3 49,28.45 M 0,0 H 30.7 L 49,28.45 M -7.25,7.149 V 0 H 0 L -0.399,8.6 H -0.6 C -2.7,7.966 -4.917,7.483 -7.25,7.149 Z m 69,41.25 L 53.7,35.6 61.75,34.55 M 37.101,36.2 49,28.45 l 4.5,7.05 0.2,0.1 -15.599,2.2 c -0.201,-0.2 -0.3,-0.367 -0.3,-0.5 -0.267,-0.334 -0.5,-0.7 -0.7,-1.1 z M -3.25,58.7 -0.399,8.6 c 3.132,1 6.216,2.15 9.25,3.45 l 8.7,5 c 3.866,2.633 7.5,5.683 10.899,9.149 L 33.2,31 c 1.3,1.766 2.601,3.5 3.901,5.2 l -3.25,2.05 4.049,-0.45 h 0.201 c 0.7,1.3 1.45,2.599 2.25,3.9 l 4.7,10.199 c 0.8,2.234 1.416,4.5 1.849,6.801 M -55.45,15.6 c 3.467,-2.167 7.117,-3.967 10.95,-5.401 M -55.45,15.6 -36.8,34.25 V 21 L -16,49.95 M -36.8,7.85 V 21 l -7.7,-10.801 m 7.7,-2.349 c -2.633,0.633 -5.166,1.417 -7.599,2.349 H -44.5 V 10.1 L -55.85,-5.801 M 2.351,-44.4 -10.8,-65 -14.05,6.149 c -2.033,-0.132 -4.099,-0.2 -6.2,-0.2 -2.6,0 -5.149,0.167 -7.649,0.5 -3,0.267 -5.967,0.734 -8.901,1.401 v -32.701 l -19.05,19.05 m 117.6,54.2 V 34.55 20.3 0 H 30.7 l -28.349,-44.4 2.75,-51.951 -82.151,60.901 21.2,29.649 -10.5,10.5 10.9,10.901 c -4.8,2.866 -9.283,6.4 -13.449,10.599 C -73.3,30.566 -77,35.25 -80,40.25 c -6.1,10.333 -9.149,21.917 -9.149,34.75 0,19.033 6.75,35.266 20.25,48.7 13.333,13.467 29.516,20.199 48.549,20.199 v 0.301 l 0.4,-0.301 c 19,-0.133 35.134,-6.866 48.4,-20.199 9.3,-9.167 15.401,-19.717 18.3,-31.65 v -0.1 l -66.7,51.949 h -0.3 -0.1 L -16,49.95 -14.05,6.149 c 2.234,0.267 4.5,0.601 6.8,1 V 58.7 h 4 50.15 M 46.75,91.95 C 48.051,86.583 48.7,80.933 48.7,75 48.7,69.233 48.101,63.8 46.9,58.7 H 61.75 V 48.399 L 75.4,69.8 46.9,91.75 Z M 31.7,95.1 40.051,78.05 10.4,88.05 Z" /></g></g></g></g></svg>